# xmcd CD database file
#
# Track frame offsets:
#	150
#	19462
#	39767
#	60156
#	64871
#	79435
#	85960
#	102699
#	105859
#	129983
#	138425
#	153500
#	160924
#	175741
#	180878
#	196353
#	215647
#	231604
#	235916
#	246183
#	248320
#
# Disc length: 3490 seconds
#
# Revision: 5
# Processed by: cddbd v1.4PL0 Copyright (c) Steve Scherf et al.
# Submitted via: CDex 1.50Beta5
#
DISCID=150da015
DTITLE=Bob Dylan - Folksingers Choice
DYEAR=1962
DGENRE=Blues
TTITLE0=Lonesome Whistle Blues
TTITLE1=Conversation
TTITLE2=Fixin' To Die
TTITLE3=Conversation
TTITLE4=Tell Me Baby
TTITLE5=Conversation
TTITLE6=Hard Travel
TTITLE7=Conversation
TTITLE8=Death Of Emmett Till
TTITLE9=Conversation
TTITLE10=Standing On The Highway
TTITLE11=Conversation
TTITLE12=Long John
TTITLE13=Conversation
TTITLE14=Stealin'
TTITLE15=Conversation
TTITLE16=Long Time Man Feel Bad
TTITLE17=Conversation
TTITLE18=Baby Please Don't Go
TTITLE19=Conversation
TTITLE20=Hard Times In New York
EXTD=Radio Show 3-11-62 YEAR: 1962
EXTT0=
EXTT1=
EXTT2=
EXTT3=
EXTT4=
EXTT5=
EXTT6=
EXTT7=
EXTT8=
EXTT9=
EXTT10=
EXTT11=
EXTT12=
EXTT13=
EXTT14=
EXTT15=
EXTT16=
EXTT17=
EXTT18=
EXTT19=
EXTT20=
PLAYORDER=
